{
	"asset":{
		"generator":"Khronos glTF Blender I/O v5.1.18",
		"version":"2.0"
	},
	"extensionsUsed":[
		"KHR_materials_unlit"
	],
	"scene":0,
	"scenes":[
		{
			"name":"Scene",
			"nodes":[
				0,
				1,
				2,
				3
			]
		}
	],
	"nodes":[
		{
			"mesh":0,
			"name":"CENTER_1"
		},
		{
			"mesh":1,
			"name":"CENTER_2"
		},
		{
			"mesh":2,
			"name":"LEFT_FULL"
		},
		{
			"mesh":3,
			"name":"RIGHT_FULL"
		}
	],
	"materials":[
		{
			"doubleSided":true,
			"extensions":{
				"KHR_materials_unlit":{}
			},
			"name":"MAP LED",
			"pbrMetallicRoughness":{
				"baseColorTexture":{
					"index":0
				},
				"metallicFactor":0,
				"roughnessFactor":0.9
			}
		}
	],
	"meshes":[
		{
			"name":"Mesh.024",
			"primitives":[
				{
					"attributes":{
						"POSITION":0,
						"NORMAL":1,
						"TEXCOORD_0":2
					},
					"indices":3,
					"material":0
				}
			]
		},
		{
			"name":"Mesh.025",
			"primitives":[
				{
					"attributes":{
						"POSITION":4,
						"NORMAL":5,
						"TEXCOORD_0":6
					},
					"indices":7,
					"material":0
				}
			]
		},
		{
			"name":"Mesh.022",
			"primitives":[
				{
					"attributes":{
						"POSITION":8,
						"NORMAL":9,
						"TEXCOORD_0":10
					},
					"indices":11,
					"material":0
				}
			]
		},
		{
			"name":"Mesh.023",
			"primitives":[
				{
					"attributes":{
						"POSITION":12,
						"NORMAL":13,
						"TEXCOORD_0":14
					},
					"indices":15,
					"material":0
				}
			]
		}
	],
	"textures":[
		{
			"sampler":0,
			"source":0
		}
	],
	"images":[
		{
			"mimeType":"image/png",
			"name":"Final NE UV0755",
			"uri":"Final%20NE%20UV0755.png"
		}
	],
	"accessors":[
		{
			"bufferView":0,
			"componentType":5126,
			"count":506,
			"max":[
				8.443985939025879,
				10.806413650512695,
				-12.746783256530762
			],
			"min":[
				-8.44527530670166,
				3.3063063621520996,
				-14.333956718444824
			],
			"type":"VEC3"
		},
		{
			"bufferView":1,
			"componentType":5126,
			"count":506,
			"type":"VEC3"
		},
		{
			"bufferView":2,
			"componentType":5126,
			"count":506,
			"type":"VEC2"
		},
		{
			"bufferView":3,
			"componentType":5123,
			"count":1680,
			"type":"SCALAR"
		},
		{
			"bufferView":4,
			"componentType":5126,
			"count":154,
			"max":[
				2.763193130493164,
				9.012605667114258,
				-16.140911102294922
			],
			"min":[
				-2.736806631088257,
				3.012606143951416,
				-16.140913009643555
			],
			"type":"VEC3"
		},
		{
			"bufferView":5,
			"componentType":5126,
			"count":154,
			"type":"VEC3"
		},
		{
			"bufferView":6,
			"componentType":5126,
			"count":154,
			"type":"VEC2"
		},
		{
			"bufferView":7,
			"componentType":5123,
			"count":780,
			"type":"SCALAR"
		},
		{
			"bufferView":8,
			"componentType":5126,
			"count":752,
			"max":[
				-8.444963455200195,
				9.305927276611328,
				-0.23926301300525665
			],
			"min":[
				-17.45037269592285,
				1.8059258460998535,
				-12.745874404907227
			],
			"type":"VEC3"
		},
		{
			"bufferView":9,
			"componentType":5126,
			"count":752,
			"type":"VEC3"
		},
		{
			"bufferView":10,
			"componentType":5126,
			"count":752,
			"type":"VEC2"
		},
		{
			"bufferView":11,
			"componentType":5123,
			"count":3780,
			"type":"SCALAR"
		},
		{
			"bufferView":12,
			"componentType":5126,
			"count":752,
			"max":[
				17.449085235595703,
				9.305927276611328,
				-0.23926402628421783
			],
			"min":[
				8.443673133850098,
				1.80592679977417,
				-12.745874404907227
			],
			"type":"VEC3"
		},
		{
			"bufferView":13,
			"componentType":5126,
			"count":752,
			"type":"VEC3"
		},
		{
			"bufferView":14,
			"componentType":5126,
			"count":752,
			"type":"VEC2"
		},
		{
			"bufferView":15,
			"componentType":5123,
			"count":3780,
			"type":"SCALAR"
		}
	],
	"bufferViews":[
		{
			"buffer":0,
			"byteLength":6072,
			"byteOffset":0,
			"target":34962
		},
		{
			"buffer":0,
			"byteLength":6072,
			"byteOffset":6072,
			"target":34962
		},
		{
			"buffer":0,
			"byteLength":4048,
			"byteOffset":12144,
			"target":34962
		},
		{
			"buffer":0,
			"byteLength":3360,
			"byteOffset":16192,
			"target":34963
		},
		{
			"buffer":0,
			"byteLength":1848,
			"byteOffset":19552,
			"target":34962
		},
		{
			"buffer":0,
			"byteLength":1848,
			"byteOffset":21400,
			"target":34962
		},
		{
			"buffer":0,
			"byteLength":1232,
			"byteOffset":23248,
			"target":34962
		},
		{
			"buffer":0,
			"byteLength":1560,
			"byteOffset":24480,
			"target":34963
		},
		{
			"buffer":0,
			"byteLength":9024,
			"byteOffset":26040,
			"target":34962
		},
		{
			"buffer":0,
			"byteLength":9024,
			"byteOffset":35064,
			"target":34962
		},
		{
			"buffer":0,
			"byteLength":6016,
			"byteOffset":44088,
			"target":34962
		},
		{
			"buffer":0,
			"byteLength":7560,
			"byteOffset":50104,
			"target":34963
		},
		{
			"buffer":0,
			"byteLength":9024,
			"byteOffset":57664,
			"target":34962
		},
		{
			"buffer":0,
			"byteLength":9024,
			"byteOffset":66688,
			"target":34962
		},
		{
			"buffer":0,
			"byteLength":6016,
			"byteOffset":75712,
			"target":34962
		},
		{
			"buffer":0,
			"byteLength":7560,
			"byteOffset":81728,
			"target":34963
		}
	],
	"samplers":[
		{
			"magFilter":9729,
			"minFilter":9987
		}
	],
	"buffers":[
		{
			"byteLength":89288,
			"uri":"3DstageFFtest.bin"
		}
	]
}
